<svg id="visual" viewBox="0 0 900 600" width="100%" height="100%" preserveAspectRatio="none" xmlns="http://www.w3.org/2000/svg" xmlns:xlink="http://www.w3.org/1999/xlink" version="1.1"><path d="M0 340L21.5 352.3C43 364.7 86 389.3 128.8 387.7C171.7 386 214.3 358 257.2 359.2C300 360.3 343 390.7 385.8 397.5C428.7 404.3 471.3 387.7 514.2 374.5C557 361.3 600 351.7 642.8 340.3C685.7 329 728.3 316 771.2 307C814 298 857 293 878.5 290.5L900 288L900 0L878.5 0C857 0 814 0 771.2 0C728.3 0 685.7 0 642.8 0C600 0 557 0 514.2 0C471.3 0 428.7 0 385.8 0C343 0 300 0 257.2 0C214.3 0 171.7 0 128.8 0C86 0 43 0 21.5 0L0 0Z" fill="#e81cff"></path><path d="M0 325L21.5 320.3C43 315.7 86 306.3 128.8 305.3C171.7 304.3 214.3 311.7 257.2 317.8C300 324 343 329 385.8 322.5C428.7 316 471.3 298 514.2 289.8C557 281.7 600 283.3 642.8 279.5C685.7 275.7 728.3 266.3 771.2 256C814 245.7 857 234.3 878.5 228.7L900 223L900 0L878.5 0C857 0 814 0 771.2 0C728.3 0 685.7 0 642.8 0C600 0 557 0 514.2 0C471.3 0 428.7 0 385.8 0C343 0 300 0 257.2 0C214.3 0 171.7 0 128.8 0C86 0 43 0 21.5 0L0 0Z" fill="#ae1ad5"></path><path d="M0 254L21.5 254.5C43 255 86 256 128.8 252.5C171.7 249 214.3 241 257.2 233.8C300 226.7 343 220.3 385.8 219.8C428.7 219.3 471.3 224.7 514.2 232.7C557 240.7 600 251.3 642.8 240.7C685.7 230 728.3 198 771.2 189.3C814 180.7 857 195.3 878.5 202.7L900 210L900 0L878.5 0C857 0 814 0 771.2 0C728.3 0 685.7 0 642.8 0C600 0 557 0 514.2 0C471.3 0 428.7 0 385.8 0C343 0 300 0 257.2 0C214.3 0 171.7 0 128.8 0C86 0 43 0 21.5 0L0 0Z" fill="#7812aa"></path><path d="M0 199L21.5 191.7C43 184.3 86 169.7 128.8 163.5C171.7 157.3 214.3 159.7 257.2 161.2C300 162.7 343 163.3 385.8 154C428.7 144.7 471.3 125.3 514.2 122.3C557 119.3 600 132.7 642.8 139C685.7 145.3 728.3 144.7 771.2 151.5C814 158.3 857 172.7 878.5 179.8L900 187L900 0L878.5 0C857 0 814 0 771.2 0C728.3 0 685.7 0 642.8 0C600 0 557 0 514.2 0C471.3 0 428.7 0 385.8 0C343 0 300 0 257.2 0C214.3 0 171.7 0 128.8 0C86 0 43 0 21.5 0L0 0Z" fill="#47077e"></path><path d="M0 48L21.5 61.2C43 74.3 86 100.7 128.8 100.3C171.7 100 214.3 73 257.2 72.3C300 71.7 343 97.3 385.8 98C428.7 98.7 471.3 74.3 514.2 75.3C557 76.3 600 102.7 642.8 112C685.7 121.3 728.3 113.7 771.2 107.5C814 101.3 857 96.7 878.5 94.3L900 92L900 0L878.5 0C857 0 814 0 771.2 0C728.3 0 685.7 0 642.8 0C600 0 557 0 514.2 0C471.3 0 428.7 0 385.8 0C343 0 300 0 257.2 0C214.3 0 171.7 0 128.8 0C86 0 43 0 21.5 0L0 0Z" fill="#1b0053"></path></svg>