<svg id="visual" viewBox="0 0 900 900" width="900" height="900" xmlns="http://www.w3.org/2000/svg" xmlns:xlink="http://www.w3.org/1999/xlink" version="1.1"><rect x="0" y="0" width="900" height="900" fill="#1B0053"></rect><path d="M303 0L283 129L282 257L291 386L253 514L308 643L269 771L282 900L0 900L0 771L0 643L0 514L0 386L0 257L0 129L0 0Z" fill="#e81cff"></path><path d="M263 0L250 129L258 257L227 386L217 514L253 643L212 771L253 900L0 900L0 771L0 643L0 514L0 386L0 257L0 129L0 0Z" fill="#a36eff"></path><path d="M199 0L223 129L199 257L200 386L196 514L219 643L180 771L190 900L0 900L0 771L0 643L0 514L0 386L0 257L0 129L0 0Z" fill="#5e8eff"></path><path d="M163 0L154 129L185 257L166 386L175 514L186 643L180 771L172 900L0 900L0 771L0 643L0 514L0 386L0 257L0 129L0 0Z" fill="#35a0ff"></path><path d="M124 0L123 129L126 257L112 386L121 514L128 643L145 771L130 900L0 900L0 771L0 643L0 514L0 386L0 257L0 129L0 0Z" fill="#24afff"></path><path d="M95 0L86 129L106 257L85 386L82 514L89 643L83 771L82 900L0 900L0 771L0 643L0 514L0 386L0 257L0 129L0 0Z" fill="#29bcff"></path><path d="M61 0L58 129L48 257L64 386L51 514L61 643L54 771L51 900L0 900L0 771L0 643L0 514L0 386L0 257L0 129L0 0Z" fill="#40c9ff"></path></svg>