<svg id="visual" viewBox="0 0 900 600" width="100%" height="100%" preserveAspectRatio="none" xmlns="http://www.w3.org/2000/svg" xmlns:xlink="http://www.w3.org/1999/xlink" version="1.1"><path d="M0 91L10.7 93C21.3 95 42.7 99 64.2 107C85.7 115 107.3 127 128.8 134C150.3 141 171.7 143 193 139C214.3 135 235.7 125 257 121C278.3 117 299.7 119 321.2 126C342.7 133 364.3 145 385.8 142C407.3 139 428.7 121 450 120C471.3 119 492.7 135 514.2 139C535.7 143 557.3 135 578.8 128C600.3 121 621.7 115 643 120C664.3 125 685.7 141 707 144C728.3 147 749.7 137 771.2 128C792.7 119 814.3 111 835.8 115C857.3 119 878.7 135 889.3 143L900 151L900 0L889.3 0C878.7 0 857.3 0 835.8 0C814.3 0 792.7 0 771.2 0C749.7 0 728.3 0 707 0C685.7 0 664.3 0 643 0C621.7 0 600.3 0 578.8 0C557.3 0 535.7 0 514.2 0C492.7 0 471.3 0 450 0C428.7 0 407.3 0 385.8 0C364.3 0 342.7 0 321.2 0C299.7 0 278.3 0 257 0C235.7 0 214.3 0 193 0C171.7 0 150.3 0 128.8 0C107.3 0 85.7 0 64.2 0C42.7 0 21.3 0 10.7 0L0 0Z" fill="#1b0053"></path><path d="M0 133L10.7 135C21.3 137 42.7 141 64.2 146C85.7 151 107.3 157 128.8 161C150.3 165 171.7 167 193 165C214.3 163 235.7 157 257 156C278.3 155 299.7 159 321.2 165C342.7 171 364.3 179 385.8 173C407.3 167 428.7 147 450 147C471.3 147 492.7 167 514.2 172C535.7 177 557.3 167 578.8 161C600.3 155 621.7 153 643 158C664.3 163 685.7 175 707 176C728.3 177 749.7 167 771.2 159C792.7 151 814.3 145 835.8 151C857.3 157 878.7 175 889.3 184L900 193L900 149L889.3 141C878.7 133 857.3 117 835.8 113C814.3 109 792.7 117 771.2 126C749.7 135 728.3 145 707 142C685.7 139 664.3 123 643 118C621.7 113 600.3 119 578.8 126C557.3 133 535.7 141 514.2 137C492.7 133 471.3 117 450 118C428.7 119 407.3 137 385.8 140C364.3 143 342.7 131 321.2 124C299.7 117 278.3 115 257 119C235.7 123 214.3 133 193 137C171.7 141 150.3 139 128.8 132C107.3 125 85.7 113 64.2 105C42.7 97 21.3 93 10.7 91L0 89Z" fill="#530a89"></path><path d="M0 175L10.7 176C21.3 177 42.7 179 64.2 183C85.7 187 107.3 193 128.8 197C150.3 201 171.7 203 193 200C214.3 197 235.7 189 257 188C278.3 187 299.7 193 321.2 200C342.7 207 364.3 215 385.8 210C407.3 205 428.7 187 450 185C471.3 183 492.7 197 514.2 202C535.7 207 557.3 203 578.8 197C600.3 191 621.7 183 643 185C664.3 187 685.7 199 707 200C728.3 201 749.7 191 771.2 184C792.7 177 814.3 173 835.8 179C857.3 185 878.7 201 889.3 209L900 217L900 191L889.3 182C878.7 173 857.3 155 835.8 149C814.3 143 792.7 149 771.2 157C749.7 165 728.3 175 707 174C685.7 173 664.3 161 643 156C621.7 151 600.3 153 578.8 159C557.3 165 535.7 175 514.2 170C492.7 165 471.3 145 450 145C428.7 145 407.3 165 385.8 171C364.3 177 342.7 169 321.2 163C299.7 157 278.3 153 257 154C235.7 155 214.3 161 193 163C171.7 165 150.3 163 128.8 159C107.3 155 85.7 149 64.2 144C42.7 139 21.3 135 10.7 133L0 131Z" fill="#9216c0"></path><path d="M0 295L10.7 297C21.3 299 42.7 303 64.2 310C85.7 317 107.3 327 128.8 329C150.3 331 171.7 325 193 318C214.3 311 235.7 303 257 307C278.3 311 299.7 327 321.2 337C342.7 347 364.3 351 385.8 344C407.3 337 428.7 319 450 313C471.3 307 492.7 313 514.2 321C535.7 329 557.3 339 578.8 339C600.3 339 621.7 329 643 333C664.3 337 685.7 355 707 357C728.3 359 749.7 345 771.2 334C792.7 323 814.3 315 835.8 311C857.3 307 878.7 307 889.3 307L900 307L900 215L889.3 207C878.7 199 857.3 183 835.8 177C814.3 171 792.7 175 771.2 182C749.7 189 728.3 199 707 198C685.7 197 664.3 185 643 183C621.7 181 600.3 189 578.8 195C557.3 201 535.7 205 514.2 200C492.7 195 471.3 181 450 183C428.7 185 407.3 203 385.8 208C364.3 213 342.7 205 321.2 198C299.7 191 278.3 185 257 186C235.7 187 214.3 195 193 198C171.7 201 150.3 199 128.8 195C107.3 191 85.7 185 64.2 181C42.7 177 21.3 175 10.7 174L0 173Z" fill="#d91cf5"></path><path d="M0 367L10.7 370C21.3 373 42.7 379 64.2 386C85.7 393 107.3 401 128.8 398C150.3 395 171.7 381 193 374C214.3 367 235.7 367 257 374C278.3 381 299.7 395 321.2 402C342.7 409 364.3 409 385.8 403C407.3 397 428.7 385 450 382C471.3 379 492.7 385 514.2 388C535.7 391 557.3 391 578.8 389C600.3 387 621.7 383 643 388C664.3 393 685.7 407 707 408C728.3 409 749.7 397 771.2 390C792.7 383 814.3 381 835.8 376C857.3 371 878.7 363 889.3 359L900 355L900 305L889.3 305C878.7 305 857.3 305 835.8 309C814.3 313 792.7 321 771.2 332C749.7 343 728.3 357 707 355C685.7 353 664.3 335 643 331C621.7 327 600.3 337 578.8 337C557.3 337 535.7 327 514.2 319C492.7 311 471.3 305 450 311C428.7 317 407.3 335 385.8 342C364.3 349 342.7 345 321.2 335C299.7 325 278.3 309 257 305C235.7 301 214.3 309 193 316C171.7 323 150.3 329 128.8 327C107.3 325 85.7 315 64.2 308C42.7 301 21.3 297 10.7 295L0 293Z" fill="#e81cff"></path><path d="M0 421L10.7 423C21.3 425 42.7 429 64.2 435C85.7 441 107.3 449 128.8 444C150.3 439 171.7 421 193 417C214.3 413 235.7 423 257 435C278.3 447 299.7 461 321.2 467C342.7 473 364.3 471 385.8 464C407.3 457 428.7 445 450 438C471.3 431 492.7 429 514.2 428C535.7 427 557.3 427 578.8 428C600.3 429 621.7 431 643 437C664.3 443 685.7 453 707 453C728.3 453 749.7 443 771.2 440C792.7 437 814.3 441 835.8 438C857.3 435 878.7 425 889.3 420L900 415L900 353L889.3 357C878.7 361 857.3 369 835.8 374C814.3 379 792.7 381 771.2 388C749.7 395 728.3 407 707 406C685.7 405 664.3 391 643 386C621.7 381 600.3 385 578.8 387C557.3 389 535.7 389 514.2 386C492.7 383 471.3 377 450 380C428.7 383 407.3 395 385.8 401C364.3 407 342.7 407 321.2 400C299.7 393 278.3 379 257 372C235.7 365 214.3 365 193 372C171.7 379 150.3 393 128.8 396C107.3 399 85.7 391 64.2 384C42.7 377 21.3 371 10.7 368L0 365Z" fill="#d91cf5"></path><path d="M0 499L10.7 502C21.3 505 42.7 511 64.2 515C85.7 519 107.3 521 128.8 520C150.3 519 171.7 515 193 514C214.3 513 235.7 515 257 520C278.3 525 299.7 533 321.2 534C342.7 535 364.3 529 385.8 525C407.3 521 428.7 519 450 520C471.3 521 492.7 525 514.2 524C535.7 523 557.3 517 578.8 515C600.3 513 621.7 515 643 518C664.3 521 685.7 525 707 526C728.3 527 749.7 525 771.2 525C792.7 525 814.3 527 835.8 523C857.3 519 878.7 509 889.3 504L900 499L900 413L889.3 418C878.7 423 857.3 433 835.8 436C814.3 439 792.7 435 771.2 438C749.7 441 728.3 451 707 451C685.7 451 664.3 441 643 435C621.7 429 600.3 427 578.8 426C557.3 425 535.7 425 514.2 426C492.7 427 471.3 429 450 436C428.7 443 407.3 455 385.8 462C364.3 469 342.7 471 321.2 465C299.7 459 278.3 445 257 433C235.7 421 214.3 411 193 415C171.7 419 150.3 437 128.8 442C107.3 447 85.7 439 64.2 433C42.7 427 21.3 423 10.7 421L0 419Z" fill="#9216c0"></path><path d="M0 553L10.7 555C21.3 557 42.7 561 64.2 562C85.7 563 107.3 561 128.8 562C150.3 563 171.7 567 193 566C214.3 565 235.7 559 257 559C278.3 559 299.7 565 321.2 565C342.7 565 364.3 559 385.8 559C407.3 559 428.7 565 450 566C471.3 567 492.7 563 514.2 562C535.7 561 557.3 563 578.8 563C600.3 563 621.7 561 643 560C664.3 559 685.7 559 707 561C728.3 563 749.7 567 771.2 567C792.7 567 814.3 563 835.8 560C857.3 557 878.7 555 889.3 554L900 553L900 497L889.3 502C878.7 507 857.3 517 835.8 521C814.3 525 792.7 523 771.2 523C749.7 523 728.3 525 707 524C685.7 523 664.3 519 643 516C621.7 513 600.3 511 578.8 513C557.3 515 535.7 521 514.2 522C492.7 523 471.3 519 450 518C428.7 517 407.3 519 385.8 523C364.3 527 342.7 533 321.2 532C299.7 531 278.3 523 257 518C235.7 513 214.3 511 193 512C171.7 513 150.3 517 128.8 518C107.3 519 85.7 517 64.2 513C42.7 509 21.3 503 10.7 500L0 497Z" fill="#530a89"></path><path d="M0 601L10.7 601C21.3 601 42.7 601 64.2 601C85.7 601 107.3 601 128.8 601C150.3 601 171.7 601 193 601C214.3 601 235.7 601 257 601C278.3 601 299.7 601 321.2 601C342.7 601 364.3 601 385.8 601C407.3 601 428.7 601 450 601C471.3 601 492.7 601 514.2 601C535.7 601 557.3 601 578.8 601C600.3 601 621.7 601 643 601C664.3 601 685.7 601 707 601C728.3 601 749.7 601 771.2 601C792.7 601 814.3 601 835.8 601C857.3 601 878.7 601 889.3 601L900 601L900 551L889.3 552C878.7 553 857.3 555 835.8 558C814.3 561 792.7 565 771.2 565C749.7 565 728.3 561 707 559C685.7 557 664.3 557 643 558C621.7 559 600.3 561 578.8 561C557.3 561 535.7 559 514.2 560C492.7 561 471.3 565 450 564C428.7 563 407.3 557 385.8 557C364.3 557 342.7 563 321.2 563C299.7 563 278.3 557 257 557C235.7 557 214.3 563 193 564C171.7 565 150.3 561 128.8 560C107.3 559 85.7 561 64.2 560C42.7 559 21.3 555 10.7 553L0 551Z" fill="#1b0053"></path></svg>