<svg id="visual" viewBox="0 0 900 600" width="100%" height="100%" preserveAspectRatio="none" xmlns="http://www.w3.org/2000/svg" xmlns:xlink="http://www.w3.org/1999/xlink" version="1.1"><path d="M0 181L30 171C60 161 120 141 180 140C240 139 300 157 360 168C420 179 480 183 540 183C600 183 660 179 720 167C780 155 840 135 870 125L900 115L900 0L870 0C840 0 780 0 720 0C660 0 600 0 540 0C480 0 420 0 360 0C300 0 240 0 180 0C120 0 60 0 30 0L0 0Z" fill="#1b0053"></path><path d="M0 391L30 391C60 391 120 391 180 405C240 419 300 447 360 441C420 435 480 395 540 390C600 385 660 415 720 416C780 417 840 389 870 375L900 361L900 113L870 123C840 133 780 153 720 165C660 177 600 181 540 181C480 181 420 177 360 166C300 155 240 137 180 138C120 139 60 159 30 169L0 179Z" fill="#6072a6"></path><path d="M0 601L30 601C60 601 120 601 180 601C240 601 300 601 360 601C420 601 480 601 540 601C600 601 660 601 720 601C780 601 840 601 870 601L900 601L900 359L870 373C840 387 780 415 720 414C660 413 600 383 540 388C480 393 420 433 360 439C300 445 240 417 180 403C120 389 60 389 30 389L0 389Z" fill="#dbe2e9"></path></svg>