
            <svg xmlns="http://www.w3.org/2000/svg">
                <filter id="grayscale">
                    <feColorMatrix type="saturate" values="0"/>
                </filter>
                <g filter="url(#grayscale)">
                    <svg xmlns="http://www.w3.org/2000/svg" viewBox="-23.7432 159.921 553.6631981689453 255.158447265625"> <svg xmlns="http://www.w3.org/2000/svg" xmlns:xlink="http://www.w3.org/1999/xlink" version="1.1" x="46.2568" y="229.921" viewBox="0 0 510.79998779296875 442.3999938964844" xml:space="preserve" height="115.158447265625" width="132.963322326387" preserveAspectRatio="xMinYMin" enable-background="new 0 0 510.8 442.4" style="overflow: visible;"><linearGradient id="SVGID_1_" gradientUnits="userSpaceOnUse" x1="80.9618" y1="395.6392" x2="429.8577" y2="46.7433" style=""><stop offset="0" style="stop-color: #40C9FF;"></stop><stop offset="1" style="stop-color: #E81CFF;"></stop></linearGradient><path id="Laag_1" class="st0" d="M170,298l-94.3,54.4l-11.9-20.6L52,311.2l-52-90L127.7,0l255.4,0l27.5,47.6l-255.4,0L55,221.2l38.2,66.2   L189,232c1.3,7.8,3.9,15.5,8.1,22.8c18.6,32.2,59.7,43.2,91.9,24.6l23.8,41.2C265.1,348.2,205.5,337.5,170,298z M458.9,131.2   L447,110.6L435.1,90l-94.3,54.4c-35.5-39.5-95-50.2-142.8-22.7l23.8,41.2c32.2-18.6,73.3-7.5,91.9,24.6c4.2,7.3,6.9,15,8.1,22.8   l95.9-55.4l38.2,66.2L355.6,394.8l-255.4,0l27.5,47.6l255.4,0l127.7-221.2L458.9,131.2z" style="fill: url(#SVGID_1_);"></path><g id="Laag_2" style=""></g></svg> <svg y="266.4149761199951" viewBox="3 9.260000228881836 252.0399932861328 26.17999839782715" x="207.8800048828125" height="26.17999839782715" width="252.0399932861328" style="overflow: visible;"><g fill="#1b0053" fill-opacity="1" style=""><path d="M8.86 35.00L3.00 35.00L3.00 9.69L8.86 9.69L8.86 35.00ZM25.71 35.00L19.92 35.00L19.92 9.69L24.77 9.69L39.70 27.92L37.35 27.92L37.35 9.69L43.14 9.69L43.14 35.00L38.33 35.00L23.36 16.78L25.71 16.78L25.71 35.00ZM67.44 35.00L61.65 35.00L50.73 9.69L57.06 9.69L66.61 32.11L62.88 32.11L72.57 9.69L78.40 9.69L67.44 35.00ZM90.94 24.44L90.94 19.89L103.13 19.89L103.13 24.44L90.94 24.44ZM91.38 14.39L91.38 30.30L105.15 30.30L105.15 35.00L85.56 35.00L85.56 9.69L104.68 9.69L104.68 14.39L91.38 14.39ZM123.20 35.44L123.20 35.44Q120.16 35.44 117.38 34.62Q114.59 33.81 112.89 32.51L112.89 32.51L114.88 28.10Q116.51 29.25 118.73 30.00Q120.96 30.74 123.23 30.74L123.23 30.74Q124.97 30.74 126.04 30.39Q127.10 30.05 127.61 29.43Q128.12 28.82 128.12 28.02L128.12 28.02Q128.12 27.01 127.32 26.42Q126.53 25.82 125.22 25.44Q123.92 25.06 122.35 24.72Q120.78 24.37 119.20 23.87Q117.63 23.36 116.33 22.56Q115.03 21.77 114.21 20.47Q113.40 19.16 113.40 17.14L113.40 17.14Q113.40 14.97 114.57 13.18Q115.75 11.39 118.12 10.32Q120.49 9.26 124.07 9.26L124.07 9.26Q126.45 9.26 128.77 9.82Q131.08 10.38 132.85 11.50L132.85 11.50L131.05 15.95Q129.27 14.93 127.50 14.45Q125.73 13.96 124.03 13.96L124.03 13.96Q122.33 13.96 121.25 14.36Q120.16 14.75 119.69 15.39Q119.22 16.02 119.22 16.85L119.22 16.85Q119.22 17.83 120.02 18.42Q120.81 19.02 122.11 19.38Q123.42 19.74 124.99 20.11Q126.56 20.47 128.13 20.94Q129.71 21.41 131.01 22.20Q132.31 23.00 133.12 24.30Q133.94 25.60 133.94 27.59L133.94 27.59Q133.94 29.72 132.74 31.50Q131.55 33.27 129.18 34.35Q126.81 35.44 123.20 35.44ZM153.75 35.00L147.90 35.00L147.90 14.46L139.80 14.46L139.80 9.69L161.85 9.69L161.85 14.46L153.75 14.46L153.75 35.00ZM171.47 35.00L165.47 35.00L176.75 9.69L182.54 9.69L193.86 35.00L187.71 35.00L178.45 12.66L180.77 12.66L171.47 35.00ZM187.27 29.58L171.11 29.58L172.67 25.13L185.68 25.13L187.27 29.58ZM207.34 35.00L201.56 35.00L201.56 9.69L206.40 9.69L221.34 27.92L218.99 27.92L218.99 9.69L224.77 9.69L224.77 35.00L219.96 35.00L204.99 16.78L207.34 16.78L207.34 35.00ZM246.94 35.00L241.08 35.00L241.08 14.46L232.98 14.46L232.98 9.69L255.04 9.69L255.04 14.46L246.94 14.46L246.94 35.00Z" transform="translate(0, 0)"></path></g></svg></svg>
                </g>
            </svg>
        