<?xml version="1.0" encoding="UTF-8"?>
<svg id="Layer_1" data-name="Layer 1" xmlns="http://www.w3.org/2000/svg" viewBox="0 0 549.52 326.98">
  <defs>
    <style>
      .cls-1, .cls-2 {
        fill: #ffe75c;
      }

      .cls-3, .cls-4 {
        fill: #fefefe;
      }

      .cls-5, .cls-6 {
        fill: #ff8c19;
      }

      .cls-7, .cls-8 {
        fill: #98bfe6;
      }

      .cls-9, .cls-10 {
        fill: #3ddb7f;
      }

      .cls-11 {
        fill: #0c873f;
      }

      .cls-12 {
        fill: #0c1aad;
        stroke: #221f20;
        stroke-miterlimit: 10;
        stroke-width: .51px;
      }

      .cls-12, .cls-13, .cls-14, .cls-15, .cls-16, .cls-17, .cls-10, .cls-18, .cls-19, .cls-20, .cls-21, .cls-6, .cls-22, .cls-23, .cls-8, .cls-2, .cls-24, .cls-25, .cls-4, .cls-26 {
        fill-rule: evenodd;
      }

      .cls-13 {
        fill: #7d1346;
      }

      .cls-14 {
        fill: #459ff7;
      }

      .cls-15 {
        fill: #9cf;
      }

      .cls-16 {
        fill: #1b0053;
      }

      .cls-17 {
        fill: #0d6331;
      }

      .cls-18 {
        fill: #221f20;
      }

      .cls-19 {
        fill: #1ca655;
      }

      .cls-20 {
        fill: #d63a85;
      }

      .cls-21 {
        fill: #acd2f7;
      }

      .cls-22 {
        fill: #ff78b9;
      }

      .cls-23 {
        fill: #9fedbf;
      }

      .cls-24 {
        fill: #e5e6e7;
      }

      .cls-25 {
        fill: #ffb914;
      }
    </style>
  </defs>
  <path class="cls-12" d="m550.85,326.98H208.24c-.04-1.36-.05-2.73-.05-4.09,0-87.89,76.72-159.13,171.37-159.13s171.35,71.24,171.35,159.13c0,1.36-.01,2.73-.05,4.09h0Z"/>
  <path class="cls-25" d="m352.26,106.88s-.83,9.25-1.77,12.54c-.94,3.29-2.18,4.79-2.18,4.79,0,0-2.35-5.18-2.49-5.87-.14-.69-.18-7.09-.18-7.09l6.61-4.37Z"/>
  <path class="cls-2" d="m356.63,97.88c-.42,6.59-4.57,13.6-9.87,15.14.57,4.25,1.8,13.36,2,14.23.25,1.13,2.87,6.94,2.87,6.94l-8.36,18.68s-19.62,14.96-23.13,15.47c-3.51.52-10.32,5.06-11.05.31-.72-4.74-1.13-3.82-1.13-8.25,0-2.68.93-8.81,1.68-13.25-4.74.29-7.76-.88-7.76-.88h0c-7.33-.94-9.58-18.33-9.69-24.38,0,0-2.28-1.86-2.2-4.4.09-2.54,1.99-4.15,1.99-4.15l-3.85-17.1c-.54-2.4,1.26-14.14,2.2-17.7.55-2.1,2.04-5.01,3.17-7.06h0c.79-1.42,1.41-2.42,1.41-2.42l1.24-.35,5.75-6.02s20.35-3.75,21.9-3.75,24.33,5.3,24.33,5.3l9.58,24.37-1.07,1.66.26,7.33-.29.26Z"/>
  <path class="cls-4" d="m377.73,204.98s31.4,1.32,45.56,30.95c14.15,29.62,11.94,61.88,11.94,61.88l-60.59-4.86s-2.21-77.81,3.09-87.97h0Z"/>
  <path class="cls-24" d="m402.79,242.27c-5.64,35.66-10.32,40.57-10.71,41.45-.21.46-.69,1.38-1.56,2.34l26.47,1.88c-.67-5.3-2.28-14.23-6.07-25.87-2.56-7.89-5.52-14.61-8.13-19.81h0Z"/>
  <polygon class="cls-22" points="163.67 269.96 550.18 295.6 550.18 326.98 45.81 326.98 45.81 306.43 163.67 269.96"/>
  <path class="cls-18" d="m305.6,295.35s74.63-6.86,77.5-7.3c2.88-.44,9.96.56,10.4,1.66.44,1.11-85.47,8.95-89.01,8.95s-6.29-1.88,1.11-3.31h0Z"/>
  <path class="cls-18" d="m145.96,291.92s1.32,1.28,5.74,2.6c4.42,1.33,80.48,13.48,83.15,13.92,2.65.45,62.02-8.5,63.57-9.72,1.54-1.22,1.54-2.87.05-3.2-1.5-.34-5.02-.25-5.02-.25l-147.5-3.34Z"/>
  <path class="cls-17" d="m233.7,306s-86.76-13.42-87.75-14.08c-1-.67-1-4.64-1-4.64l45.67-7.63,25.21.22,76.95,11.71s3.29.86,2.19,2.39c-1.11,1.52-3.38,2.07-3.38,2.07l-57.89,9.96Z"/>
  <path class="cls-14" d="m358.91,140.05c34.28,14.88,45.42,27.54,46,67.52.22,15.25.22,18.45.22,18.45l-47.99,59.46-74.74.88s-2.65-11.71-.77-19.11c1.88-7.41-4.31-13.15-3.65-20.11.67-6.96-5.19-26.09-5.19-26.09,0,0-17.8-5.86-20.78-7.51-2.99-1.66-5.64-2.88-5.2-4.31.45-1.44,14.38-31.28,15.48-34.82,4.7-15.02,26.6-22.98,40.53-27.87,1.28.34,3.84.84,7.25.57-.8,3.85-1.54,8.09-1.43,10.34.22,4.75,3.86,10.27,3.86,10.27,0,0,3.76-4.09,6.63-6.41,2.88-2.32,6.86-.77,11.06-2.54,4.2-1.77,20.1-26.27,20.1-26.27,0,0-.63-1.91-1.21-3.53-.58-1.63-.32-1.35-.44-2.46.98-.13,4.76-.97,5.74,1.38.98,2.34,4.53,12.15,4.53,12.15h0Z"/>
  <path class="cls-2" d="m405.13,226.03s-5.42-8.17-18.02-7.84c-12.61.33-22.57,5.3-22.9,6.96-.33,1.66-2.1,33.49-2.1,33.49,0,0-47.32,11.49-60.47,13.37-13.16,1.87-25.99,2.21-26.76,2.21s-27.09-3.32-27.09-3.32c0,0,3.53-4.42,8.07-9.94,4.53-5.53,20.05-28.33,20.05-28.33l-3.12-11.57s-15.51-5.25-19.42-6.87c-3.92-1.64-5.18-2.83-5.18-2.83,0,0-21.67,40.09-21.89,40.76-.22.66-7.73,6.41-7.73,6.41l-7.97,33.93,18.41,3.53s3.54,1.44,4.48.38c.95-1.04,4.48-10.49,7.53-13.59,3.04-3.09,11.55-2.92,11.55-2.92,0,0-4.64,6.14-6.85,9.12-2.21,2.98-4.53,7.02-3.76,7.91.77.88,4.92.77,8.35-2.6,3.42-3.38,7.02-6.58,7.02-6.58,0,0,10.39,5.63,16.69,5.08,6.3-.55,8.73-2.98,14.38-3.1,5.63-.11,28.41,3.54,46.43,2.77,65.68-2.83,61.11,3.72,70.33-66.42h0Z"/>
  <path class="cls-18" d="m362.89,225.48s-.89-.11-.89-5.19,1.99-28.96,7.19-41.01c5.2-12.04,10.29-15.57,8.08-15.8-2.21-.22-9.73,5.97-13.38,25.1-3.64,19.11-3.09,32.65-2.76,35.52.33,2.88,1.77,1.39,1.77,1.39h0Z"/>
  <path class="cls-18" d="m362.11,258.63s4.88-.56,10.07,1.76c5.19,2.32,6.25,5.75,6.47,3.98.22-1.77-1.83-10.11-16.54-5.74h0Z"/>
  <path class="cls-18" d="m229.56,252.83s5.91.22,11.5,5.3c5.58,5.09,5.03,10.34,5.69,10.34s1.88-2.38-.88-8.57c-2.76-6.19-11.22-7.9-13.69-8.04-2.46-.13-4.04.71-2.62.97h0Z"/>
  <path class="cls-18" d="m272.78,221.06s-5.23-30.56-4.79-39.17c.44-8.62-2.76-1.99-2.87,7.4-.11,9.39,7.66,31.77,7.66,31.77h0Z"/>
  <path class="cls-18" d="m229.36,293.17s1.77-7.51,2.49-9.34c.72-1.83,6.14-7.69,5.63-8.18-.5-.5-6.35,6.91-6.96,7.85-.61.93-2.43,7.57-2.43,7.57,0,0-.33,4.31,1.28,2.1h0Z"/>
  <path class="cls-18" d="m247.8,270.9s-13.58-.5-15.13-.11c-1.54.38-3.15,2.81-3.42,3.25-.28.45-4.64,9.9-4.64,9.9,0,0-.73-.33-.28-1.77.44-1.44,3.59-7.95,3.59-7.95,0,0,2.38-4.37,4.2-4.54,1.83-.16,15.68,1.22,15.68,1.22h0Z"/>
  <path class="cls-18" d="m228.22,274.44s-1.74.19-2.19.6c-.44.42-1.41,2.65-1.41,2.65l-1.08,2.65s-.75-1.15-.75-1.46,1.39-4.26,2.77-4.84c1.38-.57,3.81-.74,2.65.4h0Z"/>
  <path class="cls-10" d="m230.18,299.41l-19.68-78.36s-1.99-4.2-5.96-4.75c-3.98-.55-79.61-6.74-79.61-6.74,0,0-4.42-1.77-3.86,7.73.55,9.5,20.56,67.3,20.56,67.3,0,0,1.21,3.76,3.86,5.08,2.66,1.33,78.94,13.15,80.82,13.59,1.88.45,4.64-1.21,3.87-3.86h0Z"/>
  <path class="cls-19" d="m233.84,300.29s60.76-7.02,61.31-7.02,1.48.28.55,1.55c-.93,1.26-4.42,3.42-5.25,3.48-.83.05-53.52,7.96-56.06,7.8-2.54-.17-2.93-2.16-2.93-2.99s1.48-2.65,2.38-2.82h0Z"/>
  <path class="cls-18" d="m321.9,163.69s1.27-3.53,5.69-1.76c4.42,1.76,5.97,3.64,12.16,2.65,6.19-1,12.22-8.73,15.15-15.03,2.94-6.3,3.6-6.91,2.82-4.48-.77,2.43-5.96,16.08-11.61,19.07-5.63,2.98-12.38,1.99-15.08,1.1-2.72-.88-5.26-1.55-6.42-1.26-1.17.28-3.05.33-2.71-.29h0Z"/>
  <path class="cls-18" d="m303.37,148.73s-4.64,6.07-7.24,8.06c-2.6,1.99-2.54,2.88.33,3.71,2.88.83,6.63.39,6.63.39,0,0-1.05,1.88,1.11,4.15,2.16,2.27,7.02,5.08,7.02,5.08,0,0-7.4-3.09-8.85-5.3-1.44-2.21-1.55-2.6-1.55-2.6,0,0-7.29-.49-8.23-1.93-.95-1.44.46-2.46,1.65-3.32,1.19-.85,2.96-2.38,3.23-2.67.28-.31,6.58-6.91,5.89-5.55h0Z"/>
  <path class="cls-18" d="m312.26,169.24s-.86,7.51-.98,13.67c-.12,6.15.08,16.68.49,18.09.42,1.41-1.59-.35-1.68-2.72-.08-2.38.71-30.41,2.17-29.04h0Z"/>
  <path class="cls-18" d="m319.29,169.24s-.4,26.1-.41,29.35c0,3.24-2.6,4.3-4.05,4.12-1.46-.18-2.28-.57-1.32-.88.97-.31,4.18-2.07,4.39-3.9.2-1.85.4-28.34.52-28.82.12-.48.46-2.01.87.13h0Z"/>
  <path class="cls-26" d="m277.02,274.15s6.1,1.86,8.42,6.5c2.32,4.64-1.34,9.61-1.34,9.61,0,0,3.2.97,4.79.73,1.58-.23,3.19-.56,3.19-.56,0,0,1.32-4.26,1.27-9.39-.05-5.13-6.79-7.42-6.79-7.42,0,0-9.08-2.31-9.53.54h0Z"/>
  <path class="cls-21" d="m281.35,274.68s3.87,2.39,4.68,3.2c.79.83,1.19,1.3,1.65,1.33.47.02,4.12-.44,4.53-.66.43-.23-.5-.97-1.04-1.53-.55-.55-3.95-2.7-4.62-2.84-.66-.14-4.64-.01-4.91.03-.28.04-.82.24-.29.46h0Z"/>
  <polygon class="cls-20" points="45.81 326.98 45.81 306.43 216.72 326.98 45.81 326.98"/>
  <polygon class="cls-13" points="80.38 326.98 52.74 326.98 52.85 324.25 80.38 326.98"/>
  <path class="cls-15" d="m362.13,217.19s3.26-5.82,19.77-6.1c16.5-.29,23.14,5.72,23.14,5.72l-.04-3.07s-7.83-6.4-22.88-5.41c-15.04.99-19.78,5.92-19.78,5.92l-.21,2.95Z"/>
  <path class="cls-15" d="m270.02,212.48s-13.18-5.27-15.89-6.48c-2.71-1.22-4.73-2.66-4.73-2.66l.86-1.87s3.54,1.83,4.98,2.54c1.43.71,14.05,6,14.05,6l.73,2.46Z"/>
  <path class="cls-6" d="m291.99,70.43s3.98,3.46,9.07,3.05c5.08-.43,18.8-6.77,25.15-6.09,6.35.67,5.5,10.4,5.5,10.4,0,0,11.77-.08,17.54,2.12,5.75,2.2,8.47,8.72,8.47,8.72,0,0,3.05-2.63,3.3-7.62.25-4.99-7.88-25.64-13.21-27.93-5.34-2.29-15-7.2-21.85-7.71-6.87-.5-20.75,2.38-27.62,7.19-6.85,4.83-9.14,14.57-6.35,17.87h0Z"/>
  <path class="cls-18" d="m291.99,113.35s2.04-1.32,2.88-3.73c.85-2.42.76-2.44.64-2.17-.13.27-1.74,3.13-2.42,3.79-.67.65-1.36.9-1.36.9l.26,1.2Z"/>
  <path class="cls-25" d="m344.6,93.62c3.12-2.8,8.71-6.18,10.41-3.39,1.22,2,1.83,5.23,1.54,8.34,1.74-3.86,1.18-9.94,1.18-9.94,0,0-2.72-6.52-8.47-8.72-5.77-2.2-17.54-2.12-17.54-2.12,0,0-5.59,7.12-4.49,8.81,1.11,1.69,5.42,2.79,6.18,6.34.77,3.56,1.69,11.1,1.69,11.1l4.41.09s1.95-7.71,5.08-10.5h0Z"/>
  <path class="cls-18" d="m350.63,94.26s-4.86,2.83-5.92,6.86c-1.05,4.02,1.72,4.7,1.72,4.7,0,0,.61-1.44.28-2.32-.33-.89-.33-1.28-.33-1.66s7.07-7.24,4.26-7.58h0Z"/>
  <path class="cls-18" d="m307.34,147.19s15.59-.81,23.54-9.22c6.7-7.07-.88,7.78-19.74,14.53,0,0,1.11,6.8.34,6.14-.78-.66-1.43-11.51-1.43-11.51l-2.72.07Z"/>
  <path class="cls-18" d="m346.77,113.02s-2.37.28-4.24-.56c-1.88-.83-1.83-3.31-1.83-3.31,0,0-.95,3.15,1.1,4.8,2.05,1.66,5.21.86,5.21.86l-.24-1.79Z"/>
  <path class="cls-5" d="m290.08,91.96c1.9,0,3.62,1.24,4.85,3.25,1.21,1.97,1.96,4.67,1.96,7.65s-.75,5.7-1.96,7.65c-1.23,2.01-2.95,3.25-4.85,3.25s-3.62-1.24-4.85-3.25c-1.21-1.96-1.95-4.67-1.95-7.65s.74-5.69,1.95-7.65c1.23-2.01,2.95-3.25,4.85-3.25h0Zm4.15,3.87c-1.07-1.74-2.53-2.83-4.15-2.83s-3.08,1.09-4.15,2.83c-1.1,1.8-1.78,4.29-1.78,7.04s.68,5.25,1.78,7.04c1.07,1.75,2.54,2.83,4.15,2.83s3.08-1.08,4.15-2.83c1.1-1.79,1.78-4.28,1.78-7.04s-.68-5.24-1.78-7.04h0Z"/>
  <path class="cls-5" d="m312.1,90.13c2.59,0,4.92,1.35,6.61,3.56,1.67,2.18,2.72,5.19,2.72,8.52s-1.04,6.35-2.72,8.52c-1.69,2.2-4.03,3.56-6.61,3.56s-4.92-1.36-6.6-3.56c-1.68-2.18-2.72-5.2-2.72-8.52s1.03-6.34,2.72-8.52c1.68-2.21,4.03-3.56,6.6-3.56h0Zm5.95,4.25c-1.53-1.99-3.63-3.21-5.95-3.21s-4.42,1.22-5.94,3.21c-1.54,2-2.49,4.77-2.49,7.83s.95,5.83,2.49,7.83c1.52,1.99,3.63,3.21,5.94,3.21s4.42-1.22,5.95-3.21c1.53-2,2.49-4.77,2.49-7.83s-.96-5.83-2.49-7.83h0Z"/>
  <path class="cls-5" d="m295.99,102.95s3.14-3.17,7.65-.09l-.58.87c-3.8-2.6-6.33-.04-6.33-.03l-.74-.75Z"/>
  <path class="cls-2" d="m180.92,186.16s.99,2.65,0,4.64c-.99,1.98-2.21,2.65-2.21,2.65,0,0,1.94-.33,2.76,1.71.84,2.03,1.17,7.29,1.17,7.29,0,0-.11-6.74.44-7.8.55-1.05,1.22-1.77,1.22-1.77,0,0-.56.23-1.28-1.1-.72-1.33-2.1-5.63-2.1-5.63h0Z"/>
  <path class="cls-14" d="m240.29,166.1s1,2.65,0,4.64c-.99,1.99-2.21,2.65-2.21,2.65,0,0,1.94-.33,2.77,1.72.83,2.03,1.16,7.29,1.16,7.29,0,0-.11-6.74.44-7.8.56-1.04,1.22-1.76,1.22-1.76,0,0-.55.22-1.28-1.11-.72-1.32-2.1-5.63-2.1-5.63h0Z"/>
  <path class="cls-22" d="m224.41,122.58s.99,2.65,0,4.64c-1,1.99-2.21,2.66-2.21,2.66,0,0,1.93-.34,2.76,1.7.83,2.05,1.17,7.3,1.17,7.3,0,0-.11-6.74.44-7.8.55-1.04,1.21-1.77,1.21-1.77,0,0-.55.22-1.26-1.1-.73-1.33-2.1-5.64-2.1-5.64h0Z"/>
  <path class="cls-23" d="m166.63,245.23c3.72,0,7.54,4.2,8.53,9.39.99,5.19-1.23,9.39-4.95,9.39s-7.55-4.2-8.54-9.39c-.98-5.19,1.23-9.39,4.96-9.39h0Z"/>
  <polygon class="cls-24" points="406.57 294.65 354.37 308.88 420.26 314.4 454.32 297.83 406.57 294.65"/>
  <polygon class="cls-4" points="387.43 298.17 335.22 312.4 401.12 317.93 435.17 301.35 387.43 298.17"/>
  <rect class="cls-7" x="90.97" y="172.55" width="6.19" height="17.34" transform="translate(-34.76 22.81) rotate(-11.69)"/>
  <rect class="cls-7" x="98.62" y="167.33" width="6.19" height="20.95" transform="translate(-33.9 24.29) rotate(-11.69)"/>
  <rect class="cls-7" x="106.36" y="163.08" width="6.19" height="23.56" transform="translate(-33.15 25.8) rotate(-11.69)"/>
  <rect class="cls-7" x="114.15" y="159.27" width="6.19" height="25.74" transform="translate(-32.45 27.33) rotate(-11.69)"/>
  <polygon class="cls-8" points="119.24 156.66 125.31 155.4 130.91 182.46 124.83 183.71 119.24 156.66"/>
  <polygon class="cls-1" points="113.08 151.06 88.95 165.95 89.39 166.66 113.52 151.77 114.64 153.6 117.66 148.74 111.96 149.24 113.08 151.06"/>
  <polygon class="cls-8" points="90.29 192.95 140.95 182.48 141.18 183.56 90.5 194.04 90.29 192.95"/>
  <polygon class="cls-8" points="90.5 194.04 82.33 154.55 83.42 154.33 91.58 193.8 90.5 194.04"/>
  <path class="cls-14" d="m234.03,99.67c5.72,1.33,9.86,4.56,9.23,7.25-.62,2.67-5.75,3.76-11.48,2.43-5.72-1.32-9.85-4.56-9.23-7.24.63-2.68,5.76-3.77,11.47-2.44h0Z"/>
  <path class="cls-16" d="m233.92,100.14c4.8,1.11,8.35,3.44,7.94,5.19-.41,1.76-4.62,2.29-9.42,1.16-4.79-1.11-8.34-3.43-7.93-5.19.41-1.75,4.62-2.28,9.41-1.16h0Z"/>
  <path class="cls-14" d="m234.89,96.01c5.71,1.33,9.85,4.57,9.22,7.25-.62,2.67-5.75,3.77-11.48,2.44-5.71-1.33-9.85-4.57-9.23-7.25.63-2.67,5.77-3.76,11.49-2.44h0Z"/>
  <path class="cls-16" d="m234.78,96.49c4.79,1.11,8.34,3.43,7.93,5.19-.41,1.76-4.62,2.28-9.42,1.17-4.79-1.11-8.34-3.44-7.93-5.19.41-1.76,4.62-2.28,9.42-1.17h0Z"/>
  <path class="cls-14" d="m235.74,92.35c5.72,1.33,9.85,4.57,9.23,7.25-.63,2.67-5.77,3.76-11.49,2.43-5.71-1.32-9.85-4.56-9.22-7.24.62-2.68,5.75-3.77,11.48-2.44h0Z"/>
  <path class="cls-16" d="m235.63,92.83c4.79,1.11,8.34,3.44,7.93,5.19-.41,1.76-4.62,2.29-9.41,1.17-4.8-1.11-8.35-3.43-7.94-5.19.41-1.75,4.62-2.28,9.42-1.17h0Z"/>
  <path class="cls-14" d="m236.59,88.69c5.72,1.33,9.85,4.58,9.23,7.25-.63,2.67-5.77,3.77-11.48,2.44-5.72-1.33-9.86-4.58-9.23-7.25.62-2.67,5.75-3.76,11.48-2.44h0Z"/>
  <path class="cls-16" d="m236.48,89.18c4.8,1.11,8.34,3.43,7.93,5.19-.41,1.76-4.62,2.28-9.41,1.17-4.79-1.11-8.35-3.44-7.94-5.19.42-1.76,4.63-2.28,9.42-1.17h0Z"/>
  <path class="cls-14" d="m237.43,85.04c5.72,1.33,9.86,4.58,9.23,7.25-.62,2.67-5.75,3.76-11.48,2.43-5.72-1.32-9.85-4.56-9.23-7.24.63-2.68,5.76-3.77,11.48-2.44h0Z"/>
  <path class="cls-16" d="m237.32,85.51c4.8,1.11,8.35,3.44,7.95,5.2-.41,1.75-4.63,2.28-9.42,1.16-4.79-1.11-8.34-3.43-7.93-5.19.41-1.75,4.62-2.28,9.41-1.17h0Z"/>
  <path class="cls-14" d="m238.35,81.1c5.72,1.33,9.86,4.57,9.23,7.25-.61,2.67-5.75,3.77-11.47,2.44-5.72-1.33-9.85-4.57-9.23-7.25.63-2.67,5.76-3.76,11.48-2.44h0Z"/>
  <path class="cls-16" d="m238.24,81.59c4.8,1.11,8.35,3.43,7.94,5.19-.41,1.76-4.63,2.28-9.42,1.17-4.79-1.11-8.34-3.44-7.93-5.19.41-1.76,4.62-2.28,9.41-1.17h0Z"/>
  <path class="cls-14" d="m241.31,68.39c5.38,1.25,8.78,6.39,7.59,11.49-1.18,5.09-6.5,8.21-11.88,6.96-5.38-1.24-8.78-6.39-7.59-11.49,1.19-5.09,6.5-8.21,11.88-6.96h0Z"/>
  <path class="cls-16" d="m240.99,69.78c4.37,1.02,7.15,5.15,6.2,9.21-.95,4.08-5.26,6.57-9.64,5.54-4.38-1.01-7.15-5.15-6.2-9.21.95-4.08,5.26-6.55,9.64-5.54h0Z"/>
  <path class="cls-3" d="m239.68,73.98l-.22-.05c-.55-.12-.93-.12-1.18.03-.23.14-.42.49-.54,1.04-.11.45-.08.78.08.98.17.21.58.41,1.25.61l.61-2.61Zm-.72,6.42l.2.04c.55.12.95.11,1.19-.04.24-.17.44-.54.57-1.13.12-.5.09-.86-.09-1.09-.18-.22-.58-.42-1.22-.58l-.65,2.8Zm-2.84-2.56l.8.19s-.03.09-.04.16c-.02.08-.04.13-.04.17-.13.56-.13.97.01,1.21.14.25.48.43,1,.55.1.02.18.04.23.05.05.01.1.02.15.02l.65-2.79c-.92-.23-1.53-.53-1.8-.9-.29-.37-.34-.95-.16-1.68.19-.79.47-1.31.88-1.57.41-.26.98-.31,1.73-.13.09.01.15.03.2.04.05,0,.1.02.14.03l.12-.53.74.16-.13.54.21.06c.76.17,1.28.44,1.55.8.26.35.32.86.18,1.5-.01.06-.03.11-.04.17-.02.06-.04.14-.09.26l-.79-.19s.02-.08.03-.12c.01-.05.02-.12.04-.21.1-.43.08-.75-.08-.93-.15-.2-.5-.36-1.04-.5l-.15-.03-.61,2.63c.92.23,1.53.54,1.8.92.28.37.32.95.14,1.71-.19.83-.5,1.39-.89,1.68-.41.29-.98.34-1.72.18-.1-.02-.18-.04-.22-.06-.05-.01-.1-.03-.14-.04l-.12.5-.73-.18.11-.48s-.09-.02-.15-.03c-.07-.01-.11-.02-.13-.02-.79-.19-1.33-.49-1.61-.91-.28-.42-.33-1.01-.15-1.77.02-.08.07-.22.12-.4,0-.03,0-.04,0-.06h0Z"/>
  <path class="cls-22" d="m194.62,136.22c4.8.49,8.27,4.78,7.78,9.58-.51,4.79-4.8,8.27-9.59,7.78s-8.27-4.79-7.78-9.58c.5-4.8,4.8-8.28,9.59-7.78h0Z"/>
  <path class="cls-22" d="m203.28,157.43l-21.51-2.25c-3.29-.34-6.32,2.71-6.74,6.78l-.72,6.91,33.44,3.49.73-6.91c.43-4.07-1.92-7.68-5.19-8.02h0Z"/>
  <path class="cls-4" d="m207.9,154.16c6.32.66,10.94,6.05,10.31,12.04-.62,5.99-6.25,10.32-12.58,9.65-6.33-.66-10.95-6.05-10.32-12.04.63-5.99,6.26-10.32,12.59-9.66h0Z"/>
  <path class="cls-16" d="m207.73,155.79c5.15.54,8.91,4.86,8.42,9.66-.51,4.78-5.08,8.24-10.22,7.7-5.15-.54-8.91-4.85-8.42-9.65.5-4.79,5.07-8.24,10.22-7.71h0Z"/>
  <path class="cls-3" d="m206.84,160.77l-.26-.02c-.64-.07-1.09,0-1.33.2-.25.2-.41.63-.47,1.28-.07.53.02.9.23,1.11.22.21.72.37,1.52.51l.32-3.07Zm.1,7.44l.23.02c.65.07,1.1-.01,1.35-.22.26-.22.42-.67.5-1.38.07-.58-.02-.99-.25-1.22-.24-.23-.73-.41-1.49-.51l-.34,3.3Zm-3.61-2.52l.94.1s-.01.11-.02.2c0,.09-.02.14-.02.19-.08.66-.01,1.12.19,1.39.2.26.6.42,1.22.48.12,0,.21.02.27.03h.17l.35-3.29c-1.09-.12-1.82-.38-2.19-.77-.37-.39-.52-1.03-.43-1.9.1-.92.35-1.56.78-1.92.42-.35,1.08-.49,1.96-.4.1.01.18.02.23.02.05.01.11.02.16.02l.07-.63.86.09-.07.64.24.02c.9.1,1.53.33,1.88.7.36.36.5.94.42,1.69,0,.06-.01.11-.02.19-.01.07-.03.18-.07.31l-.93-.1s.01-.09.02-.14c.01-.05.01-.13.02-.24.05-.5-.02-.86-.22-1.07-.2-.2-.63-.34-1.27-.41h-.18s-.32,3.07-.32,3.07c1.09.14,1.83.41,2.19.8.37.38.51,1.03.42,1.93-.1.98-.36,1.66-.79,2.06-.42.39-1.06.53-1.93.44-.12-.01-.21-.02-.26-.03-.06,0-.12-.01-.17-.02l-.07.58-.86-.09.05-.58s-.1-.01-.18-.01c-.08,0-.13,0-.16,0-.92-.1-1.58-.38-1.96-.82-.37-.44-.52-1.1-.42-1.99.01-.1.03-.26.07-.48.01-.02.01-.04.01-.05h0Z"/>
  <path class="cls-10" d="m191.1,63.87s.99,2.66,0,4.65c-1,1.98-2.21,2.65-2.21,2.65,0,0,1.92-.33,2.76,1.7.83,2.05,1.16,7.3,1.16,7.3,0,0-.11-6.74.45-7.8.55-1.04,1.21-1.77,1.21-1.77,0,0-.55.23-1.28-1.1-.71-1.33-2.09-5.64-2.09-5.64h0Z"/>
  <path class="cls-10" d="m141.47,108.33s.38-4.96-2.81-8.14c-3.2-3.19-3.85-1.35-3.85-1.35,0,0-.81,5.76,6.66,9.49h0Z"/>
  <path class="cls-2" d="m133.93,110.18l12.26,3.7c2.3.69,3.61,3.13,2.92,5.44l-1.59,5.31-20.63-6.2,1.61-5.32c.69-2.3,3.15-3.62,5.45-2.93h0Z"/>
  <path class="cls-11" d="m142.27,95.97c-.01-.1.07-.19.17-.2.1-.01.19.07.2.16,0,.02.79,7.92-1.67,16.36-.02.09-.12.14-.22.12-.1-.03-.16-.13-.13-.23,2.44-8.37,1.66-16.2,1.66-16.22h0Z"/>
  <path class="cls-11" d="m141.58,108.22c.03.05.01.13-.04.17-.07.03-.13,0-.16-.06-.01,0-1.93-3.73-3.68-5.92-.04-.05-.03-.13.02-.16.04-.04.12-.03.17.01,1.77,2.21,3.7,5.95,3.7,5.96h0Z"/>
  <path class="cls-10" d="m141.34,110.72s2.42-4.35,6.84-5.23c4.42-.89,3.95,1,3.95,1,0,0-2.51,5.25-10.79,4.23h0Z"/>
  <path class="cls-11" d="m141.3,110.55c-.05.03-.08.11-.04.18.03.06.1.08.17.04.01-.01,3.65-2.04,6.33-2.9.07-.02.1-.09.08-.15-.02-.07-.09-.1-.15-.08-2.7.87-6.36,2.91-6.37,2.91h0Z"/>
  <path class="cls-10" d="m147.85,85.55c3.51,2.52,4.43,7.26,2.05,10.59-2.39,3.33-7.16,3.99-10.68,1.47-3.51-2.51-4.43-7.25-2.05-10.58,2.39-3.33,7.16-3.99,10.68-1.49h0Z"/>
  <path class="cls-16" d="m147.2,86.46c2.86,2.05,3.63,5.86,1.73,8.52-1.9,2.66-5.78,3.17-8.64,1.12-2.86-2.04-3.63-5.86-1.73-8.52,1.91-2.67,5.78-3.17,8.64-1.12h0Z"/>
  <path class="cls-9" d="m145,89.1l-.14-.1c-.36-.25-.65-.36-.86-.33-.22.03-.45.23-.71.59-.21.3-.29.54-.23.74.05.19.3.46.73.81l1.22-1.72Zm-2.44,4.43l.12.1c.36.25.66.36.88.32.22-.04.47-.25.75-.64.23-.33.32-.61.26-.81-.05-.22-.3-.48-.7-.79l-1.31,1.82Zm-1.29-2.71l.52.38s-.04.07-.08.11c-.04.05-.07.09-.08.11-.26.36-.39.66-.35.88.02.22.21.45.56.7.05.04.11.08.14.1.03.02.07.04.1.07l1.31-1.83c-.59-.44-.95-.85-1.03-1.2-.09-.35.04-.78.4-1.26.36-.52.72-.8,1.1-.87.37-.08.8.07,1.29.42.05.04.1.08.13.1.03.02.07.04.09.07l.25-.35.47.34-.24.35.13.1c.5.35.79.7.88,1.04.08.34-.02.71-.33,1.13-.02.03-.04.07-.08.11-.03.03-.08.09-.14.17l-.52-.37s.04-.06.07-.08c.02-.03.05-.08.09-.13.21-.29.29-.52.23-.7-.05-.2-.25-.42-.62-.67l-.1-.07-1.22,1.71c.59.45.95.85,1.02,1.21.09.35-.04.78-.41,1.28-.38.55-.77.87-1.15.96-.37.09-.8-.04-1.29-.38-.07-.06-.11-.09-.14-.11-.03-.02-.07-.06-.09-.08l-.23.33-.48-.34.23-.33s-.06-.03-.1-.07c-.04-.02-.08-.04-.1-.06-.52-.37-.8-.75-.88-1.14-.08-.38.07-.82.42-1.32.04-.05.11-.14.21-.25.01-.02.01-.03.02-.05h0Z"/>
  <path class="cls-4" d="m95.13,102.34s.99,2.65,0,4.64c-.99,1.99-2.21,2.65-2.21,2.65,0,0,1.94-.33,2.76,1.71.84,2.03,1.17,7.29,1.17,7.29,0,0-.11-6.74.44-7.8.55-1.04,1.21-1.76,1.21-1.76,0,0-.55.22-1.27-1.11-.71-1.33-2.1-5.63-2.1-5.63h0Z"/>
  <path class="cls-22" d="m170.31,116.46s.6,1.62,0,2.83c-.61,1.21-1.35,1.62-1.35,1.62,0,0,1.19-.2,1.68,1.04.51,1.24.71,4.44.71,4.44,0,0-.07-4.1.26-4.75.34-.64.75-1.07.75-1.07,0,0-.34.13-.78-.68-.44-.8-1.28-3.43-1.28-3.43h0Z"/>
  <path class="cls-4" d="m158.92,156.42c.62,0,1.11-.49,1.11-1.1s-.5-1.11-1.11-1.11-1.1.49-1.1,1.11.5,1.1,1.1,1.1h0Z"/>
  <path class="cls-4" d="m202.82,113.22c.6,0,1.1-.5,1.1-1.1s-.49-1.11-1.1-1.11-1.11.49-1.11,1.11.5,1.1,1.11,1.1h0Z"/>
  <path class="cls-4" d="m252.35,135.32c.61,0,1.1-.5,1.1-1.11s-.49-1.1-1.1-1.1-1.11.49-1.11,1.1.49,1.11,1.11,1.11h0Z"/>
  <path class="cls-4" d="m219.62,197.66c.6,0,1.11-.51,1.11-1.11s-.51-1.1-1.11-1.1-1.1.49-1.1,1.1.49,1.11,1.1,1.11h0Z"/>
  <path class="cls-4" d="m96.68,134.88c.61,0,1.1-.5,1.1-1.11s-.5-1.1-1.1-1.1-1.11.49-1.11,1.1.49,1.11,1.11,1.11h0Z"/>
  <path class="cls-4" d="m156.82,69.01c.62,0,1.11-.5,1.11-1.1s-.5-1.1-1.11-1.1-1.1.5-1.1,1.1.5,1.1,1.1,1.1h0Z"/>
  <path class="cls-4" d="m145.76,198.09c.62,0,1.11-.5,1.11-1.11s-.5-1.1-1.11-1.1-1.1.5-1.1,1.1.5,1.11,1.1,1.11h0Z"/>
  <polygon class="cls-4" points="94.54 29.98 126.56 41.77 112.77 79.18 80.75 67.38 94.54 29.98"/>
  <polygon class="cls-10" points="92.82 44.1 101.72 47.36 105.65 36.66 96.77 33.39 92.82 44.1"/>
  <path class="cls-4" d="m100.64,36.59c1.28.46,1.93,1.88,1.45,3.16-.46,1.28-1.88,1.92-3.16,1.46-1.28-.47-1.93-1.89-1.45-3.17.46-1.28,1.88-1.92,3.16-1.45h0Z"/>
  <path class="cls-4" d="m101.53,42.98l-5.72-2.1c-.87-.32-1.91.3-2.31,1.38l-.68,1.85,8.9,3.27.67-1.84c.41-1.08.01-2.22-.86-2.55h0Z"/>
  <polygon class="cls-10" points="108.86 37.84 121.93 42.66 121.64 43.44 108.56 38.63 108.86 37.84"/>
  <polygon class="cls-10" points="107.95 40.29 121.03 45.11 120.73 45.9 107.66 41.08 107.95 40.29"/>
  <polygon class="cls-10" points="107.04 42.75 120.11 47.56 119.83 48.35 106.76 43.54 107.04 42.75"/>
  <polygon class="cls-10" points="106.14 45.21 114.52 48.29 114.24 49.08 105.85 45.99 106.14 45.21"/>
  <polygon class="cls-10" points="92.38 46.99 117.39 56.21 117.22 56.67 92.21 47.46 92.38 46.99"/>
  <polygon class="cls-10" points="91.14 50.34 116.16 59.55 115.99 60.02 90.98 50.81 91.14 50.34"/>
  <polygon class="cls-10" points="89.91 53.69 114.92 62.9 114.75 63.37 89.73 54.16 89.91 53.69"/>
  <polygon class="cls-10" points="88.68 57.04 113.69 66.25 113.52 66.71 88.5 57.5 88.68 57.04"/>
  <polygon class="cls-10" points="87.45 60.38 112.45 69.59 112.28 70.06 87.27 60.86 87.45 60.38"/>
  <polygon class="cls-10" points="86.21 63.74 99.28 68.55 99.11 69.02 86.04 64.2 86.21 63.74"/>
</svg>