 <svg  version="1.0" xmlns="http://www.w3.org/2000/svg"  width="100%" height="100%" viewBox="0 0 300.000000 300.000000"  preserveAspectRatio="none">  <g transform="translate(0.000000,300.000000) scale(0.100000,-0.100000)" fill="#ffffff" stroke="none"> <path d="M78 2979 c-62 -32 -92 -110 -68 -176 6 -16 294 -311 648 -665 l637 -638 -637 -637 c-354 -355 -642 -650 -648 -666 -24 -67 6 -144 70 -177 44 -22 75 -25 117 -10 16 6 311 294 666 648 l637 637 638 -637 c354 -354 649 -642 665 -648 66 -24 140 5 176 70 23 42 26 74 11 117 -6 16 -294 311 -648 666 l-637 637 637 638 c354 354 642 649 648 665 24 66 -5 140 -70 176 -42 23 -74 26 -117 11 -16 -6 -311 -294 -665 -648 l-638 -637 -637 637 c-355 354 -650 642 -666 648 -41 15 -77 12 -119 -11z"/> </g> </svg> 